<?xml version="1.0" encoding="UTF-8"?>
<svg width="11.231mm" height="15.134mm" version="1.1" viewBox="0 0 11.231 15.134" xmlns="http://www.w3.org/2000/svg">
 <g transform="translate(45.52 -.59118)">
  <path d="m-39.904 0.59118c-3.1018-8.417e-5 -5.6163 2.5144-5.6162 5.6162 3.5e-5 1.3436 0.47949 2.6136 1.311 3.6065 0.8331 0.99478 1.8521 2.5049 1.8521 3.8122h4.9067c0-1.3072 1.0191-2.8178 1.8521-3.8127 0.34056-0.40674 0.62196-0.85944 0.83561-1.3451 0.11763-0.26741 0.26688-0.71883 0.33228-1.0036 0.07216-0.31418 0.11782-0.63633 0.13488-0.96428 0.0084-0.16156 0.0083-0.42444 0-0.58601-0.15226-2.9657-2.6049-5.3233-5.6084-5.3232z"/>
  <g stroke-width=".26458">
   <rect x="-42.003" y="14.158" width="4.1973" height=".65028"/>
   <rect transform="scale(1,-1)" x="-41.618" y="-15.725" width="3.4287" height=".53205"/>
  </g>
 </g>
</svg>
