<?xml version="1.0" encoding="UTF-8"?>
<svg width="22.44mm" height="23.926mm" version="1.1" viewBox="0 0 22.44 23.926" xmlns="http://www.w3.org/2000/svg">
 <g transform="translate(119.92 -19.69)">
  <path d="m-103.3 19.691a1.0693 1.0693 0 0 0-0.67438 0.28319l-15.6 14.435a1.0693 1.0693 0 0 0 0.40927 1.8066l20.302 6.2921a1.0693 1.0693 0 0 0 1.3596-1.2578l-4.7015-20.727a1.0693 1.0693 0 0 0-1.095-0.83147zm-0.58601 2.082a0.90178 0.90178 0 0 1 0.25011 0.02325v5.16e-4a0.90178 0.90178 0 0 1 0.67283 0.678l3.9651 17.48a0.90178 0.90178 0 0 1-1.1467 1.0609l-17.121-5.3067a0.90178 0.90178 0 0 1-0.3452-1.5234l13.156-12.174a0.90178 0.90178 0 0 1 0.56896-0.23874zm-0.51418 1.8293a0.75475 0.75475 0 0 0-0.47594 0.19947l-11.011 10.19a0.75475 0.75475 0 0 0 0.28939 1.2749l14.329 4.4416a0.75475 0.75475 0 0 0 0.95963-0.88832l-3.3187-14.631a0.75475 0.75475 0 0 0-0.56327-0.56741 0.75475 0.75475 0 0 0-0.20929-0.01912zm-1.4371 3.0127 1.4118 0.4377-1.8211 5.8741-1.4113-0.4377zm-2.2758 7.3422 1.4118 0.4377-0.4377 1.4118-1.4118-0.4377z"/>
  <rect transform="rotate(17.221)" x="-94.119" y="69.663" width="3.3572" height="4.2075" rx="0" ry=".28358" stroke-width=".73773"/>
 </g>
</svg>
